<svg xmlns="http://www.w3.org/2000/svg" viewBox="0 0 100 100">
  <defs>
    <linearGradient id="bg" x1="0" y1="0" x2="1" y2="1">
      <stop offset="0%" stop-color="#2f4f4f"/>
      <stop offset="100%" stop-color="#3a6b6b"/>
    </linearGradient>
  </defs>
  <rect width="100" height="100" rx="20" fill="url(#bg)"/>
  <path d="M50 82 C30 65 12 50 12 35 C12 22 22 14 32 14 C38 14 45 18 50 25 C55 18 62 14 68 14 C78 14 88 22 88 35 C88 50 70 65 50 82Z"
        fill="#ffffff" opacity="0.95"/>
  <circle cx="50" cy="48" r="9" fill="url(#bg)"/>
  <circle cx="37" cy="36" r="4.5" fill="url(#bg)"/>
  <circle cx="63" cy="36" r="4.5" fill="url(#bg)"/>
  <circle cx="36" cy="54" r="4.5" fill="url(#bg)"/>
  <circle cx="64" cy="54" r="4.5" fill="url(#bg)"/>
</svg>
